# xmcd
#
# Track frame offsets: 
#        150
#        19947
#        35671
#
# Disc length: 3075 seconds
#
# Revision: 2
# Processed by: cddbd v1.5PL3 Copyright (c) Steve Scherf et al.
# Submitted via: ExactAudioCopy v0.90b4
#
DISCID=1f0c0103
DTITLE=Lorrie Morgan - The Color Of Roses - Disc 2
DYEAR=2002
DGENRE=Country
TTITLE0=The Color Of Roses (Studio Version)
TTITLE1=Help Me Make It Through The Night (Studio Version)
TTITLE2=Audio Interview With Lorrie Morgan
EXTD=
EXTT0=
EXTT1=
EXTT2=
PLAYORDER=
